<mxfile host="app.diagrams.net" agent="Mozilla/5.0 (Windows NT 10.0; Win64; x64) AppleWebKit/537.36 (KHTML, like Gecko) Chrome/132.0.0.0 Safari/537.36 OPR/117.0.0.0" version="26.1.1">
  <diagram name="Page-1" id="iXeg-zfbAlBCnqqb55lr">
    <mxGraphModel dx="2439" dy="857" grid="1" gridSize="10" guides="1" tooltips="1" connect="1" arrows="1" fold="1" page="1" pageScale="1" pageWidth="827" pageHeight="1169" math="0" shadow="0">
      <root>
        <mxCell id="0" />
        <mxCell id="1" parent="0" />
        <mxCell id="zP7d5f_9tEzzHWjP8LjR-1" value="поиск товара" style="rounded=1;whiteSpace=wrap;html=1;fillColor=#dae8fc;strokeColor=#6c8ebf;" parent="1" vertex="1">
          <mxGeometry x="-670" y="30" width="120" height="60" as="geometry" />
        </mxCell>
        <mxCell id="zP7d5f_9tEzzHWjP8LjR-2" value="Ознакомление с товаром" style="rounded=1;whiteSpace=wrap;html=1;fillColor=#dae8fc;strokeColor=#6c8ebf;" parent="1" vertex="1">
          <mxGeometry x="-510" y="30" width="120" height="60" as="geometry" />
        </mxCell>
        <mxCell id="zP7d5f_9tEzzHWjP8LjR-3" value="" style="endArrow=none;html=1;rounded=0;" parent="1" edge="1">
          <mxGeometry width="50" height="50" relative="1" as="geometry">
            <mxPoint x="-530" y="700" as="sourcePoint" />
            <mxPoint x="-530" y="20" as="targetPoint" />
          </mxGeometry>
        </mxCell>
        <mxCell id="zP7d5f_9tEzzHWjP8LjR-4" value="" style="endArrow=none;html=1;rounded=0;" parent="1" edge="1">
          <mxGeometry width="50" height="50" relative="1" as="geometry">
            <mxPoint x="-690" y="120" as="sourcePoint" />
            <mxPoint x="-40" y="120" as="targetPoint" />
          </mxGeometry>
        </mxCell>
        <mxCell id="zP7d5f_9tEzzHWjP8LjR-9" value="посмотреть описание" style="rounded=1;whiteSpace=wrap;html=1;fillColor=#fff2cc;strokeColor=#d6b656;" parent="1" vertex="1">
          <mxGeometry x="-500" y="140" width="100" height="50" as="geometry" />
        </mxCell>
        <mxCell id="zP7d5f_9tEzzHWjP8LjR-10" value="посмотреть цену" style="rounded=1;whiteSpace=wrap;html=1;fillColor=#fff2cc;strokeColor=#d6b656;" parent="1" vertex="1">
          <mxGeometry x="-500" y="210" width="100" height="50" as="geometry" />
        </mxCell>
        <mxCell id="zP7d5f_9tEzzHWjP8LjR-14" value="выбрать товар под свое предпочтение" style="rounded=1;whiteSpace=wrap;html=1;fillColor=#f5f5f5;strokeColor=#666666;fontColor=#333333;" parent="1" vertex="1">
          <mxGeometry x="-500" y="370" width="100" height="50" as="geometry" />
        </mxCell>
        <mxCell id="zP7d5f_9tEzzHWjP8LjR-15" value="" style="endArrow=none;html=1;rounded=0;" parent="1" edge="1">
          <mxGeometry width="50" height="50" relative="1" as="geometry">
            <mxPoint x="-370" y="700" as="sourcePoint" />
            <mxPoint x="-370" y="20" as="targetPoint" />
          </mxGeometry>
        </mxCell>
        <mxCell id="zP7d5f_9tEzzHWjP8LjR-17" value="заполнение корзины" style="rounded=1;whiteSpace=wrap;html=1;fillColor=#dae8fc;strokeColor=#6c8ebf;" parent="1" vertex="1">
          <mxGeometry x="-350" y="30" width="120" height="60" as="geometry" />
        </mxCell>
        <mxCell id="zP7d5f_9tEzzHWjP8LjR-18" value="добавить в корзину" style="rounded=1;whiteSpace=wrap;html=1;fillColor=#fff2cc;strokeColor=#d6b656;" parent="1" vertex="1">
          <mxGeometry x="-340" y="140" width="100" height="50" as="geometry" />
        </mxCell>
        <mxCell id="zP7d5f_9tEzzHWjP8LjR-19" value="удалить из корзины" style="rounded=1;whiteSpace=wrap;html=1;fillColor=#f5f5f5;strokeColor=#666666;fontColor=#333333;" parent="1" vertex="1">
          <mxGeometry x="-340" y="210" width="100" height="50" as="geometry" />
        </mxCell>
        <mxCell id="zP7d5f_9tEzzHWjP8LjR-21" value="" style="endArrow=none;html=1;rounded=0;" parent="1" edge="1">
          <mxGeometry width="50" height="50" relative="1" as="geometry">
            <mxPoint x="-210" y="700" as="sourcePoint" />
            <mxPoint x="-210" y="30" as="targetPoint" />
          </mxGeometry>
        </mxCell>
        <mxCell id="zP7d5f_9tEzzHWjP8LjR-22" value="Покупка товара" style="rounded=1;whiteSpace=wrap;html=1;fillColor=#dae8fc;strokeColor=#6c8ebf;" parent="1" vertex="1">
          <mxGeometry x="-180" y="30" width="120" height="60" as="geometry" />
        </mxCell>
        <mxCell id="zP7d5f_9tEzzHWjP8LjR-24" value="Ввести данные карты" style="rounded=1;whiteSpace=wrap;html=1;fillColor=#fff2cc;strokeColor=#d6b656;" parent="1" vertex="1">
          <mxGeometry x="-170" y="200" width="100" height="50" as="geometry" />
        </mxCell>
        <mxCell id="zP7d5f_9tEzzHWjP8LjR-25" value="Подтвердить покупку" style="rounded=1;whiteSpace=wrap;html=1;fillColor=#fff2cc;strokeColor=#d6b656;" parent="1" vertex="1">
          <mxGeometry x="-170" y="260" width="100" height="50" as="geometry" />
        </mxCell>
        <mxCell id="zP7d5f_9tEzzHWjP8LjR-27" value="Ввести промокод" style="rounded=1;whiteSpace=wrap;html=1;fillColor=#f5f5f5;strokeColor=#666666;fontColor=#333333;" parent="1" vertex="1">
          <mxGeometry x="-170" y="490" width="100" height="50" as="geometry" />
        </mxCell>
        <mxCell id="zP7d5f_9tEzzHWjP8LjR-31" value="&lt;font style=&quot;font-size: 14px;&quot;&gt;&lt;b&gt;Сделать обязательно&lt;/b&gt;&lt;/font&gt;" style="text;html=1;strokeColor=none;fillColor=none;align=center;verticalAlign=middle;whiteSpace=wrap;rounded=0;" parent="1" vertex="1">
          <mxGeometry x="-800" y="220" width="90" height="30" as="geometry" />
        </mxCell>
        <mxCell id="zP7d5f_9tEzzHWjP8LjR-32" value="&lt;font style=&quot;font-size: 14px;&quot;&gt;&lt;b&gt;Хорошо бы сделать&lt;/b&gt;&lt;/font&gt;" style="text;html=1;strokeColor=none;fillColor=none;align=center;verticalAlign=middle;whiteSpace=wrap;rounded=0;" parent="1" vertex="1">
          <mxGeometry x="-800" y="400" width="100" height="30" as="geometry" />
        </mxCell>
        <mxCell id="zP7d5f_9tEzzHWjP8LjR-33" value="&lt;font style=&quot;font-size: 14px;&quot;&gt;&lt;b&gt;Можно будет сделать&lt;/b&gt;&lt;/font&gt;" style="text;html=1;strokeColor=none;fillColor=none;align=center;verticalAlign=middle;whiteSpace=wrap;rounded=0;" parent="1" vertex="1">
          <mxGeometry x="-790" y="535" width="110" height="50" as="geometry" />
        </mxCell>
        <mxCell id="zP7d5f_9tEzzHWjP8LjR-36" value="" style="endArrow=none;html=1;rounded=0;" parent="1" edge="1">
          <mxGeometry width="50" height="50" relative="1" as="geometry">
            <mxPoint x="-800" y="350" as="sourcePoint" />
            <mxPoint x="-30" y="350" as="targetPoint" />
          </mxGeometry>
        </mxCell>
        <mxCell id="zP7d5f_9tEzzHWjP8LjR-37" value="" style="endArrow=none;html=1;rounded=0;" parent="1" edge="1">
          <mxGeometry width="50" height="50" relative="1" as="geometry">
            <mxPoint x="-795" y="470" as="sourcePoint" />
            <mxPoint x="-25" y="470" as="targetPoint" />
          </mxGeometry>
        </mxCell>
        <mxCell id="zP7d5f_9tEzzHWjP8LjR-39" value="" style="endArrow=none;html=1;rounded=0;edgeStyle=orthogonalEdgeStyle;strokeColor=#b85450;fillColor=#f8cecc;" parent="1" edge="1">
          <mxGeometry width="50" height="50" relative="1" as="geometry">
            <mxPoint x="-680" y="200" as="sourcePoint" />
            <mxPoint x="-40" y="340" as="targetPoint" />
            <Array as="points">
              <mxPoint x="-680" y="260" />
              <mxPoint x="-510" y="260" />
              <mxPoint x="-510" y="340" />
            </Array>
          </mxGeometry>
        </mxCell>
        <mxCell id="zP7d5f_9tEzzHWjP8LjR-41" value="" style="endArrow=none;html=1;rounded=0;edgeStyle=orthogonalEdgeStyle;strokeColor=#6c8ebf;fillColor=#dae8fc;" parent="1" edge="1">
          <mxGeometry width="50" height="50" relative="1" as="geometry">
            <mxPoint x="-700" y="360" as="sourcePoint" />
            <mxPoint x="-60" y="360" as="targetPoint" />
            <Array as="points">
              <mxPoint x="-700" y="430" />
              <mxPoint x="-50" y="430" />
              <mxPoint x="-50" y="360" />
            </Array>
          </mxGeometry>
        </mxCell>
        <mxCell id="zP7d5f_9tEzzHWjP8LjR-43" value="" style="endArrow=none;html=1;rounded=0;strokeColor=#82b366;entryX=0.5;entryY=1;entryDx=0;entryDy=0;fillColor=#d5e8d4;" parent="1" edge="1">
          <mxGeometry width="50" height="50" relative="1" as="geometry">
            <mxPoint x="-680" y="620" as="sourcePoint" />
            <mxPoint x="-10" y="570" as="targetPoint" />
            <Array as="points">
              <mxPoint x="-510" y="620" />
              <mxPoint x="-470" y="620" />
              <mxPoint x="-380" y="620" />
              <mxPoint x="-380" y="570" />
              <mxPoint x="-200" y="570" />
            </Array>
          </mxGeometry>
        </mxCell>
        <mxCell id="zP7d5f_9tEzzHWjP8LjR-44" value="&lt;font style=&quot;font-size: 14px;&quot;&gt;&lt;b&gt;ver.1&lt;/b&gt;&lt;/font&gt;" style="text;html=1;strokeColor=none;fillColor=none;align=center;verticalAlign=middle;whiteSpace=wrap;rounded=0;" parent="1" vertex="1">
          <mxGeometry y="210" width="60" height="30" as="geometry" />
        </mxCell>
        <mxCell id="zP7d5f_9tEzzHWjP8LjR-45" value="&lt;font style=&quot;font-size: 14px;&quot;&gt;&lt;b&gt;ver.2&lt;/b&gt;&lt;/font&gt;" style="text;html=1;strokeColor=none;fillColor=none;align=center;verticalAlign=middle;whiteSpace=wrap;rounded=0;" parent="1" vertex="1">
          <mxGeometry y="390" width="60" height="30" as="geometry" />
        </mxCell>
        <mxCell id="i0YAJOjGmukp666-XQv_-1" value="изменить кол-во товара" style="rounded=1;whiteSpace=wrap;html=1;fillColor=#f5f5f5;strokeColor=#666666;fontColor=#333333;" parent="1" vertex="1">
          <mxGeometry x="-340" y="370" width="100" height="50" as="geometry" />
        </mxCell>
        <mxCell id="i0YAJOjGmukp666-XQv_-2" value="почитать отзывы от пользователей" style="rounded=1;whiteSpace=wrap;html=1;fillColor=#f5f5f5;strokeColor=#666666;fontColor=#333333;" parent="1" vertex="1">
          <mxGeometry x="-500" y="280" width="100" height="50" as="geometry" />
        </mxCell>
        <mxCell id="8nSQRHI2w10a63NCxb2d-2" value="найти товар" style="rounded=1;whiteSpace=wrap;html=1;fillColor=#fff2cc;strokeColor=#d6b656;" parent="1" vertex="1">
          <mxGeometry x="-660" y="140" width="100" height="50" as="geometry" />
        </mxCell>
        <mxCell id="8nSQRHI2w10a63NCxb2d-3" value="Фильтр по типу товара&lt;span style=&quot;color: rgba(0, 0, 0, 0); font-family: monospace; font-size: 0px; text-align: start; text-wrap-mode: nowrap;&quot;&gt;%3CmxGraphModel%3E%3Croot%3E%3CmxCell%20id%3D%220%22%2F%3E%3CmxCell%20id%3D%221%22%20parent%3D%220%22%2F%3E%3CmxCell%20id%3D%222%22%20value%3D%22%D0%A1%D0%BE%D1%80%D1%82%D0%B8%D1%80%D0%BE%D0%B2%D0%BA%D0%B0%20%D0%BF%D0%BE%20%D1%86%D0%B5%D0%BD%D0%B5%22%20style%3D%22rounded%3D1%3BwhiteSpace%3Dwrap%3Bhtml%3D1%3BfillColor%3D%23f5f5f5%3BstrokeColor%3D%23666666%3BfontColor%3D%23333333%3B%22%20vertex%3D%221%22%20parent%3D%221%22%3E%3CmxGeometry%20x%3D%22-500%22%20y%3D%22280%22%20width%3D%22100%22%20height%3D%2250%22%20as%3D%22geometry%22%2F%3E%3C%2FmxCell%3E%3C%2Froot%3E%3C%2FmxGraphModel%3E&lt;/span&gt;" style="rounded=1;whiteSpace=wrap;html=1;fillColor=#f5f5f5;strokeColor=#666666;fontColor=#333333;" parent="1" vertex="1">
          <mxGeometry x="-660" y="200" width="100" height="50" as="geometry" />
        </mxCell>
        <mxCell id="8nSQRHI2w10a63NCxb2d-4" value="фильтр по цене" style="rounded=1;whiteSpace=wrap;html=1;fillColor=#f5f5f5;strokeColor=#666666;fontColor=#333333;" parent="1" vertex="1">
          <mxGeometry x="-660" y="370" width="100" height="50" as="geometry" />
        </mxCell>
        <mxCell id="8nSQRHI2w10a63NCxb2d-5" value="Фильтр по типу эксплуатации" style="rounded=1;whiteSpace=wrap;html=1;fillColor=#f5f5f5;strokeColor=#666666;fontColor=#333333;" parent="1" vertex="1">
          <mxGeometry x="-660" y="490" width="100" height="50" as="geometry" />
        </mxCell>
        <mxCell id="8nSQRHI2w10a63NCxb2d-7" value="указать адрес доставки" style="rounded=1;whiteSpace=wrap;html=1;fillColor=#fff2cc;strokeColor=#d6b656;" parent="1" vertex="1">
          <mxGeometry x="-170" y="140" width="100" height="50" as="geometry" />
        </mxCell>
        <mxCell id="8nSQRHI2w10a63NCxb2d-8" value="выбрать вид оплаты" style="rounded=1;whiteSpace=wrap;html=1;fillColor=#f5f5f5;strokeColor=#666666;fontColor=#333333;" parent="1" vertex="1">
          <mxGeometry x="-170" y="370" width="100" height="50" as="geometry" />
        </mxCell>
        <mxCell id="8nSQRHI2w10a63NCxb2d-9" value="Посмотреть похожие товары" style="rounded=1;whiteSpace=wrap;html=1;fillColor=#f5f5f5;strokeColor=#666666;fontColor=#333333;" parent="1" vertex="1">
          <mxGeometry x="-500" y="490" width="100" height="50" as="geometry" />
        </mxCell>
        <mxCell id="8nSQRHI2w10a63NCxb2d-10" value="Посмотреть акционные товары" style="rounded=1;whiteSpace=wrap;html=1;fillColor=#f5f5f5;strokeColor=#666666;fontColor=#333333;" parent="1" vertex="1">
          <mxGeometry x="-500" y="560" width="100" height="50" as="geometry" />
        </mxCell>
        <mxCell id="8nSQRHI2w10a63NCxb2d-11" value="&lt;font style=&quot;font-size: 14px;&quot;&gt;&lt;b&gt;ver.3&lt;/b&gt;&lt;/font&gt;" style="text;html=1;strokeColor=none;fillColor=none;align=center;verticalAlign=middle;whiteSpace=wrap;rounded=0;" parent="1" vertex="1">
          <mxGeometry y="510" width="60" height="30" as="geometry" />
        </mxCell>
        <mxCell id="wsNYGtgDLNoU4Rsrs63G-1" value="найти товар" style="rounded=1;whiteSpace=wrap;html=1;fillColor=#fff2cc;strokeColor=#d6b656;" parent="1" vertex="1">
          <mxGeometry x="200" y="50" width="100" height="50" as="geometry" />
        </mxCell>
        <mxCell id="wsNYGtgDLNoU4Rsrs63G-2" value="посмотреть описание" style="rounded=1;whiteSpace=wrap;html=1;fillColor=#fff2cc;strokeColor=#d6b656;" parent="1" vertex="1">
          <mxGeometry x="200" y="110" width="100" height="50" as="geometry" />
        </mxCell>
        <mxCell id="wsNYGtgDLNoU4Rsrs63G-3" value="почитать отзывы от пользователей" style="rounded=1;whiteSpace=wrap;html=1;fillColor=#f5f5f5;strokeColor=#666666;fontColor=#333333;" parent="1" vertex="1">
          <mxGeometry x="200" y="230" width="100" height="50" as="geometry" />
        </mxCell>
        <mxCell id="wsNYGtgDLNoU4Rsrs63G-4" value="добавить в корзину" style="rounded=1;whiteSpace=wrap;html=1;fillColor=#fff2cc;strokeColor=#d6b656;" parent="1" vertex="1">
          <mxGeometry x="200" y="290" width="100" height="50" as="geometry" />
        </mxCell>
        <mxCell id="wsNYGtgDLNoU4Rsrs63G-5" value="посмотреть цену" style="rounded=1;whiteSpace=wrap;html=1;fillColor=#fff2cc;strokeColor=#d6b656;" parent="1" vertex="1">
          <mxGeometry x="200" y="170" width="100" height="50" as="geometry" />
        </mxCell>
        <mxCell id="wsNYGtgDLNoU4Rsrs63G-6" value="удалить из корзины" style="rounded=1;whiteSpace=wrap;html=1;fillColor=#f5f5f5;strokeColor=#666666;fontColor=#333333;" parent="1" vertex="1">
          <mxGeometry x="200" y="350" width="100" height="50" as="geometry" />
        </mxCell>
        <mxCell id="wsNYGtgDLNoU4Rsrs63G-7" value="указать адрес доставки" style="rounded=1;whiteSpace=wrap;html=1;fillColor=#fff2cc;strokeColor=#d6b656;" parent="1" vertex="1">
          <mxGeometry x="200" y="410" width="100" height="50" as="geometry" />
        </mxCell>
        <mxCell id="wsNYGtgDLNoU4Rsrs63G-8" value="Ввести данные карты" style="rounded=1;whiteSpace=wrap;html=1;fillColor=#fff2cc;strokeColor=#d6b656;" parent="1" vertex="1">
          <mxGeometry x="200" y="470" width="100" height="50" as="geometry" />
        </mxCell>
        <mxCell id="wsNYGtgDLNoU4Rsrs63G-9" value="Ввести данные карты" style="rounded=1;whiteSpace=wrap;html=1;fillColor=#fff2cc;strokeColor=#d6b656;" parent="1" vertex="1">
          <mxGeometry x="200" y="530" width="100" height="50" as="geometry" />
        </mxCell>
        <mxCell id="wsNYGtgDLNoU4Rsrs63G-10" value="Подтвердить покупку" style="rounded=1;whiteSpace=wrap;html=1;fillColor=#fff2cc;strokeColor=#d6b656;" parent="1" vertex="1">
          <mxGeometry x="200" y="590" width="100" height="50" as="geometry" />
        </mxCell>
        <mxCell id="wsNYGtgDLNoU4Rsrs63G-11" value="&lt;font style=&quot;font-size: 14px;&quot;&gt;&lt;b&gt;ver.1&lt;/b&gt;&lt;/font&gt;" style="text;html=1;strokeColor=none;fillColor=none;align=center;verticalAlign=middle;whiteSpace=wrap;rounded=0;" parent="1" vertex="1">
          <mxGeometry x="375" y="350" width="50" height="20" as="geometry" />
        </mxCell>
        <mxCell id="wsNYGtgDLNoU4Rsrs63G-12" value="" style="endArrow=none;html=1;rounded=0;fontSize=12;startSize=8;endSize=8;curved=1;fillColor=#f8cecc;strokeColor=#b85450;strokeWidth=3;" parent="1" edge="1">
          <mxGeometry width="50" height="50" relative="1" as="geometry">
            <mxPoint x="200" y="650" as="sourcePoint" />
            <mxPoint x="300" y="650" as="targetPoint" />
          </mxGeometry>
        </mxCell>
        <mxCell id="wsNYGtgDLNoU4Rsrs63G-13" value="фильтр по цене" style="rounded=1;whiteSpace=wrap;html=1;fillColor=#f5f5f5;strokeColor=#666666;fontColor=#333333;" parent="1" vertex="1">
          <mxGeometry x="200" y="660" width="100" height="50" as="geometry" />
        </mxCell>
        <mxCell id="wsNYGtgDLNoU4Rsrs63G-14" value="выбрать товар под свое предпочтение" style="rounded=1;whiteSpace=wrap;html=1;fillColor=#f5f5f5;strokeColor=#666666;fontColor=#333333;" parent="1" vertex="1">
          <mxGeometry x="200" y="720" width="100" height="50" as="geometry" />
        </mxCell>
        <mxCell id="wsNYGtgDLNoU4Rsrs63G-15" value="изменить кол-во товара" style="rounded=1;whiteSpace=wrap;html=1;fillColor=#f5f5f5;strokeColor=#666666;fontColor=#333333;" parent="1" vertex="1">
          <mxGeometry x="200" y="780" width="100" height="50" as="geometry" />
        </mxCell>
        <mxCell id="wsNYGtgDLNoU4Rsrs63G-16" value="выбрать вид оплаты" style="rounded=1;whiteSpace=wrap;html=1;fillColor=#f5f5f5;strokeColor=#666666;fontColor=#333333;" parent="1" vertex="1">
          <mxGeometry x="200" y="840" width="100" height="50" as="geometry" />
        </mxCell>
        <mxCell id="wsNYGtgDLNoU4Rsrs63G-17" value="" style="endArrow=none;html=1;rounded=0;fontSize=12;startSize=8;endSize=8;curved=1;fillColor=#dae8fc;strokeColor=#6c8ebf;strokeWidth=3;" parent="1" edge="1">
          <mxGeometry width="50" height="50" relative="1" as="geometry">
            <mxPoint x="200" y="900" as="sourcePoint" />
            <mxPoint x="300" y="900" as="targetPoint" />
          </mxGeometry>
        </mxCell>
        <mxCell id="wsNYGtgDLNoU4Rsrs63G-18" value="Фильтр по типу эксплуатации" style="rounded=1;whiteSpace=wrap;html=1;fillColor=#f5f5f5;strokeColor=#666666;fontColor=#333333;" parent="1" vertex="1">
          <mxGeometry x="200" y="910" width="100" height="50" as="geometry" />
        </mxCell>
        <mxCell id="wsNYGtgDLNoU4Rsrs63G-19" value="Посмотреть похожие товары" style="rounded=1;whiteSpace=wrap;html=1;fillColor=#f5f5f5;strokeColor=#666666;fontColor=#333333;" parent="1" vertex="1">
          <mxGeometry x="200" y="970" width="100" height="50" as="geometry" />
        </mxCell>
        <mxCell id="wsNYGtgDLNoU4Rsrs63G-20" value="Посмотреть акционные товары" style="rounded=1;whiteSpace=wrap;html=1;fillColor=#f5f5f5;strokeColor=#666666;fontColor=#333333;" parent="1" vertex="1">
          <mxGeometry x="200" y="1030" width="100" height="50" as="geometry" />
        </mxCell>
        <mxCell id="wsNYGtgDLNoU4Rsrs63G-21" value="Ввести промокод" style="rounded=1;whiteSpace=wrap;html=1;fillColor=#f5f5f5;strokeColor=#666666;fontColor=#333333;" parent="1" vertex="1">
          <mxGeometry x="200" y="1090" width="100" height="50" as="geometry" />
        </mxCell>
        <mxCell id="oNu_ZM4QIyNe_fRyoF66-1" value="поиск товара" style="rounded=1;whiteSpace=wrap;html=1;fillColor=#dae8fc;strokeColor=#6c8ebf;" vertex="1" parent="1">
          <mxGeometry x="-730" y="740" width="120" height="60" as="geometry" />
        </mxCell>
        <mxCell id="oNu_ZM4QIyNe_fRyoF66-2" value="Ознакомление с товаром" style="rounded=1;whiteSpace=wrap;html=1;fillColor=#dae8fc;strokeColor=#6c8ebf;" vertex="1" parent="1">
          <mxGeometry x="-533" y="740" width="120" height="60" as="geometry" />
        </mxCell>
        <mxCell id="oNu_ZM4QIyNe_fRyoF66-3" value="заполнение корзины" style="rounded=1;whiteSpace=wrap;html=1;fillColor=#dae8fc;strokeColor=#6c8ebf;" vertex="1" parent="1">
          <mxGeometry x="-360" y="740" width="120" height="60" as="geometry" />
        </mxCell>
        <mxCell id="oNu_ZM4QIyNe_fRyoF66-4" value="Покупка товара" style="rounded=1;whiteSpace=wrap;html=1;fillColor=#dae8fc;strokeColor=#6c8ebf;" vertex="1" parent="1">
          <mxGeometry x="-160" y="740" width="120" height="60" as="geometry" />
        </mxCell>
        <mxCell id="oNu_ZM4QIyNe_fRyoF66-5" value="найти товар" style="rounded=1;whiteSpace=wrap;html=1;fillColor=#fff2cc;strokeColor=#d6b656;" vertex="1" parent="1">
          <mxGeometry x="-800" y="840" width="100" height="50" as="geometry" />
        </mxCell>
        <mxCell id="oNu_ZM4QIyNe_fRyoF66-6" value="посмотреть описание" style="rounded=1;whiteSpace=wrap;html=1;fillColor=#fff2cc;strokeColor=#d6b656;" vertex="1" parent="1">
          <mxGeometry x="-690" y="840" width="100" height="50" as="geometry" />
        </mxCell>
        <mxCell id="oNu_ZM4QIyNe_fRyoF66-7" value="посмотреть цену" style="rounded=1;whiteSpace=wrap;html=1;fillColor=#fff2cc;strokeColor=#d6b656;" vertex="1" parent="1">
          <mxGeometry x="-580" y="840" width="100" height="50" as="geometry" />
        </mxCell>
        <mxCell id="oNu_ZM4QIyNe_fRyoF66-8" value="добавить в корзину" style="rounded=1;whiteSpace=wrap;html=1;fillColor=#fff2cc;strokeColor=#d6b656;" vertex="1" parent="1">
          <mxGeometry x="-470" y="840" width="100" height="50" as="geometry" />
        </mxCell>
        <mxCell id="oNu_ZM4QIyNe_fRyoF66-9" value="указать адрес доставки" style="rounded=1;whiteSpace=wrap;html=1;fillColor=#fff2cc;strokeColor=#d6b656;" vertex="1" parent="1">
          <mxGeometry x="-360" y="840" width="100" height="50" as="geometry" />
        </mxCell>
        <mxCell id="oNu_ZM4QIyNe_fRyoF66-10" value="Ввести данные карты" style="rounded=1;whiteSpace=wrap;html=1;fillColor=#fff2cc;strokeColor=#d6b656;" vertex="1" parent="1">
          <mxGeometry x="-250" y="840" width="100" height="50" as="geometry" />
        </mxCell>
        <mxCell id="oNu_ZM4QIyNe_fRyoF66-11" value="Подтвердить покупку" style="rounded=1;whiteSpace=wrap;html=1;fillColor=#fff2cc;strokeColor=#d6b656;" vertex="1" parent="1">
          <mxGeometry x="-140" y="840" width="100" height="50" as="geometry" />
        </mxCell>
        <mxCell id="oNu_ZM4QIyNe_fRyoF66-12" value="" style="endArrow=classic;html=1;rounded=0;exitX=0.5;exitY=0;exitDx=0;exitDy=0;entryX=0.5;entryY=1;entryDx=0;entryDy=0;fillColor=#fff2cc;strokeColor=#d6b656;" edge="1" parent="1" source="oNu_ZM4QIyNe_fRyoF66-5" target="oNu_ZM4QIyNe_fRyoF66-1">
          <mxGeometry width="50" height="50" relative="1" as="geometry">
            <mxPoint x="-440" y="860" as="sourcePoint" />
            <mxPoint x="-390" y="810" as="targetPoint" />
          </mxGeometry>
        </mxCell>
        <mxCell id="oNu_ZM4QIyNe_fRyoF66-14" value="" style="endArrow=none;html=1;rounded=0;exitX=0;exitY=0;exitDx=0;exitDy=0;entryX=0.944;entryY=0.009;entryDx=0;entryDy=0;entryPerimeter=0;edgeStyle=orthogonalEdgeStyle;curved=1;fillColor=#fff2cc;strokeColor=#d6b656;" edge="1" parent="1" source="oNu_ZM4QIyNe_fRyoF66-6" target="oNu_ZM4QIyNe_fRyoF66-7">
          <mxGeometry width="50" height="50" relative="1" as="geometry">
            <mxPoint x="-580" y="910" as="sourcePoint" />
            <mxPoint x="-530" y="860" as="targetPoint" />
            <Array as="points">
              <mxPoint x="-690" y="830" />
              <mxPoint x="-486" y="830" />
            </Array>
          </mxGeometry>
        </mxCell>
        <mxCell id="oNu_ZM4QIyNe_fRyoF66-15" value="" style="endArrow=classic;html=1;rounded=0;entryX=0;entryY=1;entryDx=0;entryDy=0;fillColor=#fff2cc;strokeColor=#d6b656;" edge="1" parent="1" target="oNu_ZM4QIyNe_fRyoF66-2">
          <mxGeometry width="50" height="50" relative="1" as="geometry">
            <mxPoint x="-590" y="830" as="sourcePoint" />
            <mxPoint x="-520" y="830" as="targetPoint" />
          </mxGeometry>
        </mxCell>
        <mxCell id="oNu_ZM4QIyNe_fRyoF66-16" value="" style="endArrow=none;html=1;rounded=0;exitX=0;exitY=0;exitDx=0;exitDy=0;entryX=1;entryY=0;entryDx=0;entryDy=0;edgeStyle=orthogonalEdgeStyle;curved=1;fillColor=#fff2cc;strokeColor=#d6b656;" edge="1" parent="1" source="oNu_ZM4QIyNe_fRyoF66-9" target="oNu_ZM4QIyNe_fRyoF66-11">
          <mxGeometry width="50" height="50" relative="1" as="geometry">
            <mxPoint x="-250" y="880" as="sourcePoint" />
            <mxPoint x="-200" y="830" as="targetPoint" />
          </mxGeometry>
        </mxCell>
        <mxCell id="oNu_ZM4QIyNe_fRyoF66-17" value="" style="endArrow=classic;html=1;rounded=0;entryX=0.5;entryY=1;entryDx=0;entryDy=0;fillColor=#fff2cc;strokeColor=#d6b656;" edge="1" parent="1" target="oNu_ZM4QIyNe_fRyoF66-4">
          <mxGeometry width="50" height="50" relative="1" as="geometry">
            <mxPoint x="-210" y="830" as="sourcePoint" />
            <mxPoint x="-200" y="830" as="targetPoint" />
          </mxGeometry>
        </mxCell>
        <mxCell id="oNu_ZM4QIyNe_fRyoF66-18" value="" style="endArrow=classic;html=1;rounded=0;exitX=0.5;exitY=0;exitDx=0;exitDy=0;entryX=0.064;entryY=0.993;entryDx=0;entryDy=0;entryPerimeter=0;fillColor=#fff2cc;strokeColor=#d6b656;" edge="1" parent="1" source="oNu_ZM4QIyNe_fRyoF66-8" target="oNu_ZM4QIyNe_fRyoF66-3">
          <mxGeometry width="50" height="50" relative="1" as="geometry">
            <mxPoint x="-510" y="840" as="sourcePoint" />
            <mxPoint x="-460" y="790" as="targetPoint" />
          </mxGeometry>
        </mxCell>
        <mxCell id="oNu_ZM4QIyNe_fRyoF66-19" value="" style="endArrow=none;html=1;rounded=0;fontSize=12;startSize=8;endSize=8;curved=1;fillColor=#d5e8d4;strokeColor=#82b366;strokeWidth=3;" edge="1" parent="1">
          <mxGeometry width="50" height="50" relative="1" as="geometry">
            <mxPoint x="200" y="1150" as="sourcePoint" />
            <mxPoint x="300" y="1150" as="targetPoint" />
          </mxGeometry>
        </mxCell>
        <mxCell id="oNu_ZM4QIyNe_fRyoF66-20" value="&lt;font style=&quot;font-size: 14px;&quot;&gt;&lt;b&gt;ver.2&lt;/b&gt;&lt;/font&gt;" style="text;html=1;strokeColor=none;fillColor=none;align=center;verticalAlign=middle;whiteSpace=wrap;rounded=0;" vertex="1" parent="1">
          <mxGeometry x="370" y="780" width="60" height="30" as="geometry" />
        </mxCell>
        <mxCell id="oNu_ZM4QIyNe_fRyoF66-21" value="&lt;font style=&quot;font-size: 14px;&quot;&gt;&lt;b&gt;ver.3&lt;/b&gt;&lt;/font&gt;" style="text;html=1;strokeColor=none;fillColor=none;align=center;verticalAlign=middle;whiteSpace=wrap;rounded=0;" vertex="1" parent="1">
          <mxGeometry x="370" y="1010" width="60" height="30" as="geometry" />
        </mxCell>
      </root>
    </mxGraphModel>
  </diagram>
</mxfile>
